<svg id="visual" viewBox="0 0 960 540" width="960" height="540" xmlns="http://www.w3.org/2000/svg" xmlns:xlink="http://www.w3.org/1999/xlink" version="1.1"><g><g transform="translate(667 333)"><path d="M82.7 -26.2C95 11 84.5 56.4 55.7 77.5C26.9 98.6 -20.2 95.6 -54.7 71.4C-89.1 47.3 -111 2 -99.8 -33.7C-88.6 -69.4 -44.3 -95.6 -4.6 -94.1C35.2 -92.6 70.4 -63.5 82.7 -26.2Z" stroke="#21fa90" fill="none" stroke-width="20"></path></g><g transform="translate(346 537)"><path d="M59.7 -18.2C67.7 5.1 57.7 35.3 36.4 51C15.2 66.7 -17.4 67.7 -38.8 52.4C-60.3 37 -70.7 5.3 -62.4 -18.4C-54.1 -42.1 -27 -57.9 -0.6 -57.7C25.9 -57.5 51.8 -41.4 59.7 -18.2Z" stroke="#21fa90" fill="none" stroke-width="20"></path></g><g transform="translate(62 51)"><path d="M96.5 -30.8C109 7.2 92.1 55.3 58.3 79.8C24.5 104.2 -26.2 105 -54.6 82.6C-83 60.2 -89.1 14.6 -76.3 -23.8C-63.5 -62.1 -31.7 -93.3 5.1 -95C42 -96.7 84 -68.8 96.5 -30.8Z" stroke="#21fa90" fill="none" stroke-width="20"></path></g><g transform="translate(945 253)"><path d="M65.8 -18.9C75.8 9.3 67.9 45.9 44 64.1C20.1 82.3 -19.7 82.1 -43.9 63.7C-68 45.4 -76.6 8.9 -66.7 -19.3C-56.7 -47.4 -28.4 -67.2 -0.2 -67.1C27.9 -67 55.9 -47.1 65.8 -18.9Z" stroke="#21fa90" fill="none" stroke-width="20"></path></g></g></svg>