<svg id="visual" viewBox="0 0 675 900" width="675" height="900" xmlns="http://www.w3.org/2000/svg" xmlns:xlink="http://www.w3.org/1999/xlink" version="1.1"><rect x="0" y="0" width="675" height="900" fill="#001220"></rect><defs><linearGradient id="grad1_0" x1="0%" y1="100%" x2="100%" y2="0%"><stop offset="30%" stop-color="#001220" stop-opacity="1"></stop><stop offset="70%" stop-color="#001220" stop-opacity="1"></stop></linearGradient></defs><defs><linearGradient id="grad2_0" x1="0%" y1="100%" x2="100%" y2="0%"><stop offset="30%" stop-color="#001220" stop-opacity="1"></stop><stop offset="70%" stop-color="#001220" stop-opacity="1"></stop></linearGradient></defs><g transform="translate(675, 900)"><path d="M-421.9 0C-381.4 -56.4 -341 -112.8 -310.9 -179.5C-280.8 -246.2 -261 -323.2 -210.9 -365.4C-160.8 -407.5 -80.4 -414.7 0 -421.9L0 0Z" fill="#FBAE3C"></path></g><g transform="translate(0, 0)"><path d="M421.9 0C415.7 82.2 409.5 164.3 365.4 210.9C321.2 257.6 239.2 268.7 172 297.9C104.8 327.1 52.4 374.5 0 421.9L0 0Z" fill="#FBAE3C"></path></g></svg>