<svg id="visual" viewBox="0 0 960 540" width="960" height="540" xmlns="http://www.w3.org/2000/svg" xmlns:xlink="http://www.w3.org/1999/xlink" version="1.1"><rect width="960" height="540" fill="#030f17"></rect><g><g transform="translate(955 534)"><path d="M0 -31.3L15.7 -27.1L27.1 -15.7L31.3 0L27.1 15.7L15.7 27.1L0 31.3L-15.7 27.1L-27.1 15.7L-31.3 0L-27.1 -15.7L-15.7 -27.1Z" fill="none" stroke="#29a642" stroke-width="2"></path></g><g transform="translate(886 468)"><path d="M0 -16L8 -13.9L13.9 -8L16 0L13.9 8L8 13.9L0 16L-8 13.9L-13.9 8L-16 0L-13.9 -8L-8 -13.9Z" fill="none" stroke="#29a642" stroke-width="2"></path></g><g transform="translate(908 135)"><path d="M0 -28L14 -24.2L24.2 -14L28 0L24.2 14L14 24.2L0 28L-14 24.2L-24.2 14L-28 0L-24.2 -14L-14 -24.2Z" fill="none" stroke="#29a642" stroke-width="2"></path></g><g transform="translate(838 308)"><path d="M0 -22L11 -19.1L19.1 -11L22 0L19.1 11L11 19.1L0 22L-11 19.1L-19.1 11L-22 0L-19.1 -11L-11 -19.1Z" fill="none" stroke="#29a642" stroke-width="2"></path></g><g transform="translate(265 524)"><path d="M0 -20L10 -17.3L17.3 -10L20 0L17.3 10L10 17.3L0 20L-10 17.3L-17.3 10L-20 0L-17.3 -10L-10 -17.3Z" stroke="#29a642" fill="none" stroke-width="2"></path></g><g transform="translate(119 271)"><path d="M0 -18L9 -15.6L15.6 -9L18 0L15.6 9L9 15.6L0 18L-9 15.6L-15.6 9L-18 0L-15.6 -9L-9 -15.6Z" stroke="#29a642" fill="none" stroke-width="2"></path></g><g transform="translate(636 66)"><path d="M0 -16L8 -13.9L13.9 -8L16 0L13.9 8L8 13.9L0 16L-8 13.9L-13.9 8L-16 0L-13.9 -8L-8 -13.9Z" stroke="#29a642" fill="none" stroke-width="2"></path></g><g transform="translate(231 35)"><path d="M0 -27L13.5 -23.4L23.4 -13.5L27 0L23.4 13.5L13.5 23.4L0 27L-13.5 23.4L-23.4 13.5L-27 0L-23.4 -13.5L-13.5 -23.4Z" stroke="#29a642" fill="none" stroke-width="2"></path></g><g transform="translate(277 253)"><path d="M0 -15L7.5 -13L13 -7.5L15 0L13 7.5L7.5 13L0 15L-7.5 13L-13 7.5L-15 0L-13 -7.5L-7.5 -13Z" stroke="#29a642" fill="none" stroke-width="2"></path></g></g></svg>